<svg width="900" height="650" viewBox="0 0 900 650" fill="none" xmlns="http://www.w3.org/2000/svg">
<rect width="900" height="650" rx="42" fill="#F0F4F1"/>
<circle cx="710" cy="125" r="86" fill="#D6E1D8"/>
<path d="M244 274h316c-14 153-69 234-158 234s-144-81-158-234z" fill="#BCCDBF" stroke="#1E2920" stroke-width="18"/>
<path d="M562 310h56c53 0 58 77 10 102-25 13-58 8-82 2" stroke="#1E2920" stroke-width="18" stroke-linecap="round"/>
<ellipse cx="402" cy="274" rx="166" ry="48" fill="#F0F4F1" stroke="#1E2920" stroke-width="18"/>
<ellipse cx="402" cy="272" rx="103" ry="29" fill="#6C9373" opacity=".55"/>
<path d="M331 175c-30-31 27-50 0-84M405 176c-30-31 27-50 0-84M481 176c-30-31 27-50 0-84" stroke="#3D5241" stroke-width="17" stroke-linecap="round"/>
<path d="M230 536h357" stroke="#1E2920" stroke-width="18" stroke-linecap="round"/>
<text x="68" y="104" fill="#1E2920" font-family="Arial, sans-serif" font-size="52" font-weight="700">Latte</text>
</svg>
